<svg xmlns="http://www.w3.org/2000/svg" xmlns:xlink="http://www.w3.org/1999/xlink" width="960" zoomAndPan="magnify" viewBox="0 0 720 899.99999" height="1200" preserveAspectRatio="xMidYMid meet" version="1.0"><defs><g/><clipPath id="18372b5fd9"><path d="M 584 232 L 687.777344 232 L 687.777344 415 L 584 415 Z M 584 232 " clip-rule="nonzero"/></clipPath><clipPath id="b1456ea689"><path d="M 332 213.1875 L 653 213.1875 L 653 339 L 332 339 Z M 332 213.1875 " clip-rule="nonzero"/></clipPath></defs><path fill="#d7901d" d="M 323.550781 544.324219 C 310.667969 557.203125 289.785156 557.203125 276.90625 544.324219 L 180.148438 447.566406 C 167.265625 434.683594 167.265625 413.800781 180.148438 400.921875 L 226.046875 355.023438 L 136.597656 265.570312 L 99.527344 302.640625 C 56.636719 345.53125 50.261719 413.019531 84.75 462.917969 C 104.253906 491.140625 130.480469 523.910156 165.273438 558.703125 C 200.066406 593.496094 232.839844 619.722656 261.058594 639.226562 C 310.957031 673.714844 378.445312 667.34375 421.335938 624.449219 L 458.40625 587.382812 L 369.449219 498.421875 Z M 323.550781 544.324219 " fill-opacity="1" fill-rule="nonzero"/><path fill="#d7901d" d="M 298.191406 232.578125 L 298.191406 414.085938 L 401.480469 313.511719 Z M 298.191406 232.578125 " fill-opacity="1" fill-rule="nonzero"/><path fill="#d7901d" d="M 492.96875 385.199219 L 430.585938 336.320312 L 324.957031 439.167969 L 660.996094 439.167969 L 555.355469 336.320312 Z M 492.96875 385.199219 " fill-opacity="1" fill-rule="nonzero"/><g clip-path="url(#18372b5fd9)"><path fill="#d7901d" d="M 584.460938 313.511719 L 687.75 414.085938 L 687.75 232.578125 Z M 584.460938 313.511719 " fill-opacity="1" fill-rule="nonzero"/></g><g clip-path="url(#b1456ea689)"><path fill="#d7901d" d="M 652.988281 213.277344 L 332.953125 213.277344 L 492.972656 338.664062 Z M 652.988281 213.277344 " fill-opacity="1" fill-rule="nonzero"/></g><g fill="#000000" fill-opacity="1"><g transform="translate(356.572485, 893.599965)"><g><path d="M 3.421875 0.125 C 2.929688 0.125 2.546875 -0.0078125 2.265625 -0.28125 C 1.992188 -0.550781 1.859375 -0.910156 1.859375 -1.359375 C 1.859375 -1.796875 1.992188 -2.15625 2.265625 -2.4375 C 2.546875 -2.726562 2.929688 -2.875 3.421875 -2.875 C 3.910156 -2.875 4.289062 -2.738281 4.5625 -2.46875 C 4.84375 -2.195312 4.984375 -1.835938 4.984375 -1.390625 C 4.984375 -0.941406 4.84375 -0.578125 4.5625 -0.296875 C 4.28125 -0.015625 3.898438 0.125 3.421875 0.125 Z M 3.421875 0.125 "/></g></g></g></svg>